<svg width="526" height="143" viewBox="0 0 526 143" fill="none" xmlns="http://www.w3.org/2000/svg">
<path d="M92.2372 32H15C12.2386 32 10 34.2386 10 37V50.5H4.5C2.84315 50.5 1.5 51.8431 1.5 53.5V57.5C1.5 59.1569 2.84315 60.5 4.5 60.5H10V89.5H13C14.6569 89.5 16 90.8431 16 92.5V93C16 94.6569 14.6569 96 13 96H10V103H13C14.6569 103 16 104.343 16 106V106.5C16 108.157 14.6569 109.5 13 109.5H10V118C10 120.761 12.2386 123 15 123H215.264C216.687 123 218.042 123.606 218.991 124.666L233.009 140.334C233.958 141.394 235.313 142 236.736 142H519.5C522.261 142 524.5 139.761 524.5 137V47C524.5 44.2386 522.261 42 519.5 42H443V46.5C443 48.9853 440.985 51 438.5 51C436.015 51 434 48.9853 434 46.5V42H407V46.5C407 48.9853 404.985 51 402.5 51C400.015 51 398 48.9853 398 46.5V42H346.417C344.89 42 343.447 41.3024 342.499 40.106L313.001 2.89404C312.053 1.69757 310.61 1 309.083 1H134.263C133.122 1 132.016 1.3901 131.127 2.10554L95.373 30.8945C94.4845 31.6099 93.378 32 92.2372 32Z" stroke="#A4D1FD" stroke-width="2"/>
<path d="M215 7C214.724 7 214.5 7.22386 214.5 7.5C214.5 7.77614 214.724 8 215 8V7ZM307 7.5L307.39 7.18765L307.24 7H307V7.5ZM326.333 35C326.333 36.4728 327.527 37.6667 329 37.6667C330.473 37.6667 331.667 36.4728 331.667 35C331.667 33.5272 330.473 32.3333 329 32.3333C327.527 32.3333 326.333 33.5272 326.333 35ZM215 7.5V8H307V7.5V7H215V7.5ZM307 7.5L306.61 7.81235L328.61 35.3123L329 35L329.39 34.6877L307.39 7.18765L307 7.5Z" fill="#A4D1FD"/>
<path d="M77 124H100" stroke="#A4D1FD" stroke-width="2" stroke-linecap="round"/>
<path d="M209 129.5L214 131.887V126.113L209 128.5V129.5ZM99 129L98.6283 129.334L98.7773 129.5H99V129ZM209.5 129V128.5H99V129V129.5H209.5V129ZM99 129L99.3717 128.666L94.8717 123.666L94.5 124L94.1283 124.334L98.6283 129.334L99 129Z" fill="#A4D1FD"/>
<path d="M195.26 132H96.9997L89.9997 124" stroke="#A4D1FD"/>
<path d="M196.5 130.75C197.19 130.75 197.75 131.31 197.75 132C197.75 132.69 197.19 133.25 196.5 133.25C195.81 133.25 195.25 132.69 195.25 132C195.25 131.31 195.81 130.75 196.5 130.75Z" stroke="#A4D1FD" stroke-width="0.5"/>
<path d="M199.5 130.75C200.19 130.75 200.75 131.31 200.75 132C200.75 132.69 200.19 133.25 199.5 133.25C198.81 133.25 198.25 132.69 198.25 132C198.25 131.31 198.81 130.75 199.5 130.75Z" stroke="#A4D1FD" stroke-width="0.5"/>
<path d="M202.5 130.75C203.19 130.75 203.75 131.31 203.75 132C203.75 132.69 203.19 133.25 202.5 133.25C201.81 133.25 201.25 132.69 201.25 132C201.25 131.31 201.81 130.75 202.5 130.75Z" stroke="#A4D1FD" stroke-width="0.5"/>
<path d="M209 135H95L85 124" stroke="#A4D1FD"/>
<path d="M211.293 135L210 136.293L208.707 135L210 133.707L211.293 135Z" fill="#A4D1FD" stroke="#A4D1FD"/>
<path d="M213.5 133.75C214.19 133.75 214.75 134.31 214.75 135C214.75 135.69 214.19 136.25 213.5 136.25C212.81 136.25 212.25 135.69 212.25 135C212.25 134.31 212.81 133.75 213.5 133.75Z" stroke="#A4D1FD" stroke-width="0.5"/>
<path d="M222.667 138C222.667 136.527 221.473 135.333 220 135.333C218.527 135.333 217.333 136.527 217.333 138C217.333 139.473 218.527 140.667 220 140.667C221.473 140.667 222.667 139.473 222.667 138ZM93 138L92.6271 138.333L92.7762 138.5H93V138ZM220 138V137.5L93 137.5V138V138.5L220 138.5V138ZM93 138L93.373 137.667L80.873 123.667L80.5 124L80.127 124.333L92.6271 138.333L93 138Z" fill="#A4D1FD"/>
<path d="M508.5 140.5H503.703L508.5 137.416V140.5Z" fill="#A4D1FD" stroke="#A4D1FD"/>
<path d="M521.5 104V136C521.5 137.657 520.157 139 518.5 139H509" stroke="#A4D1FD" stroke-width="5"/>
<path d="M523 103.5V98.7031L519.916 103.5H523Z" fill="#A4D1FD" stroke="#A4D1FD"/>
<path d="M219.053 119.5H188H15.5C14.3954 119.5 13.5 118.605 13.5 117.5V113H14.5C17.2614 113 19.5 110.761 19.5 108V104.601C19.5 102 17.5067 99.8339 14.9152 99.6179L13.5 99.5L14.9152 99.3821C17.5067 99.1661 19.5 96.9998 19.5 94.3993V91C19.5 88.2386 17.2614 86 14.5 86H13.5V57H6C5.44772 57 5 56.5523 5 56V55C5 54.4477 5.44772 54 6 54H13.5V37.5C13.5 36.3954 14.3954 35.5 15.5 35.5H94.651C94.877 35.5 95.0963 35.4234 95.2732 35.2828L133.727 4.71718C133.904 4.57655 134.123 4.5 134.349 4.5H211C211.552 4.5 212 4.94772 212 5.5V9.5C212 10.0523 212.448 10.5 213 10.5H304.515C304.821 10.5 305.111 10.6406 305.3 10.8814L323.286 33.7278C323.425 33.9041 323.5 34.122 323.5 34.3464V35C323.5 37.7614 325.739 40 328.5 40H337.526C337.826 40 338.11 40.1346 338.3 40.3668L341 43.6662C341.949 44.8269 343.37 45.5 344.869 45.5H394.5V49.5C394.5 52.2614 396.739 54.5 399.5 54.5H405.5C408.261 54.5 410.5 52.2614 410.5 49.5V45.5H430.5V49.5C430.5 52.2614 432.739 54.5 435.5 54.5H441.5C444.261 54.5 446.5 52.2614 446.5 49.5V45.5H519C520.105 45.5 521 46.3954 521 47.5V96.6732C521 96.8855 520.932 97.0924 520.807 97.2637L516.693 102.886C516.568 103.057 516.5 103.264 516.5 103.476V133C516.5 133.552 516.052 134 515.5 134H508.777C508.596 134 508.418 134.049 508.262 134.143L501.238 138.357C501.082 138.451 500.904 138.5 500.723 138.5H236.947C236.663 138.5 236.392 138.379 236.202 138.167L219.798 119.833C219.608 119.621 219.337 119.5 219.053 119.5Z" fill="#A4D1FD" fill-opacity="0.3" stroke="#A4D1FD"/>
</svg>
