<svg width="518" height="298" viewBox="0 0 518 298" fill="none" xmlns="http://www.w3.org/2000/svg">
<path d="M481 21.5L481.682 20.7685L481.394 20.5H481V21.5ZM510.5 49H511.5V48.5651L511.182 48.2685L510.5 49ZM510.5 236L511.221 236.693L511.5 236.403V236H510.5ZM1.5 251.5H0.5V251.922L0.802258 252.216L1.5 251.5ZM40 289L39.3023 289.716L39.5935 290H40V289ZM459.5 289V290H459.926L460.221 289.693L459.5 289ZM1.5 200L0.864293 199.228L0.5 199.528V200H1.5ZM18.5 186L19.1357 186.772L19.5 186.472V186H18.5ZM18.5 57.5L17.7638 56.8233L17.5 57.1102V57.5H18.5ZM64 8V7H63.5609L63.2638 7.32327L64 8ZM196 2.66667C193.054 2.66667 190.667 5.05448 190.667 8C190.667 10.9455 193.054 13.3333 196 13.3333C198.946 13.3333 201.333 10.9455 201.333 8C201.333 5.05448 198.946 2.66667 196 2.66667ZM161 288C160.448 288 160 288.448 160 289C160 289.552 160.448 290 161 290V288ZM481 21.5L480.318 22.2315L509.818 49.7315L510.5 49L511.182 48.2685L481.682 20.7685L481 21.5ZM510.5 49H509.5V236H510.5H511.5V49H510.5ZM1.5 251.5L0.802258 252.216L39.3023 289.716L40 289L40.6977 288.284L2.19774 250.784L1.5 251.5ZM459.5 289L460.221 289.693L511.221 236.693L510.5 236L509.779 235.307L458.779 288.307L459.5 289ZM1.5 200H0.5V251.5H1.5H2.5V200H1.5ZM18.5 186L17.8643 185.228L0.864293 199.228L1.5 200L2.13571 200.772L19.1357 186.772L18.5 186ZM40 289V290H45V289V288H40V289ZM260 21.5V22.5L481 22.5V21.5V20.5L260 20.5V21.5ZM18.5 186H19.5V57.5H18.5H17.5V186H18.5ZM18.5 57.5L19.2362 58.1767L64.7362 8.67673L64 8L63.2638 7.32327L17.7638 56.8233L18.5 57.5ZM64 8V9L196 9V8V7L64 7V8ZM161 289V290H459.5V289V288H161V289Z" fill="#FFAF56"/>
<path d="M299.001 295C298.725 295 298.501 295.224 298.501 295.5C298.501 295.776 298.725 296 299.001 296L299.001 295ZM462.501 295.5L462.501 296L462.715 296L462.863 295.846L462.501 295.5ZM481.833 272.528C481.849 274.001 483.056 275.182 484.528 275.167C486.001 275.151 487.182 273.944 487.166 272.472C487.151 270.999 485.944 269.818 484.472 269.833C482.999 269.849 481.818 271.056 481.833 272.528ZM299.001 295.5L299.001 296L462.501 296L462.501 295.5L462.501 295L299.001 295L299.001 295.5ZM462.501 295.5L462.863 295.846L484.861 272.846L484.5 272.5L484.139 272.154L462.14 295.154L462.501 295.5Z" fill="#FFAF56"/>
<path d="M517 62.5V191" stroke="#FFAF56" stroke-linecap="round"/>
<line x1="18.2652" y1="60.3217" x2="66.2652" y2="8.32172" stroke="#FFAF56" stroke-width="2"/>
<path d="M10.5 135.667C11.9728 135.667 13.1667 134.473 13.1667 133C13.1667 131.527 11.9728 130.333 10.5 130.333C9.02724 130.333 7.83333 131.527 7.83333 133C7.83333 134.473 9.02724 135.667 10.5 135.667ZM10.5 54.5L10.1349 54.1584L10 54.3026V54.5H10.5ZM39.8651 23.8416C40.0538 23.6399 40.0432 23.3235 39.8416 23.1349C39.6399 22.9462 39.3235 22.9568 39.1349 23.1584L39.8651 23.8416ZM10.5 133H11L11 54.5H10.5H10L10 133H10.5ZM10.5 54.5L10.8651 54.8416L39.8651 23.8416L39.5 23.5L39.1349 23.1584L10.1349 54.1584L10.5 54.5Z" fill="#FFAF56"/>
<path d="M245 11.5L210 11.5L200 0.5L62.5 0.5L48 15" stroke="#FFAF56" stroke-linecap="round"/>
<path d="M251.772 11.5L260.903 22H254.228L245.097 11.5H251.772Z" fill="#FFAF56" stroke="#FFAF56"/>
<path d="M42 287H40L1.5 249.5" stroke="#FFAF56" stroke-width="2"/>
<path d="M47.7842 281.5L55.3398 289.5H44.207L36.207 281.5H47.7842Z" fill="#FFAF56" stroke="#FFAF56"/>
<path d="M60.7842 281.5L68.3398 289.5H62.7158L55.1602 281.5H60.7842Z" fill="#FFAF56" stroke="#FFAF56"/>
<path d="M72.7842 281.5L80.3398 289.5H74.7158L67.1602 281.5H72.7842Z" fill="#FFAF56" stroke="#FFAF56"/>
<path d="M84.7842 281.5L92.3398 289.5H86.7158L79.1602 281.5H84.7842Z" fill="#FFAF56" stroke="#FFAF56"/>
<path d="M96.7842 281.5L104.34 289.5H98.7158L91.1602 281.5H96.7842Z" fill="#FFAF56" stroke="#FFAF56"/>
<path d="M108.784 281.5L116.34 289.5H110.716L103.16 281.5H108.784Z" fill="#FFAF56" stroke="#FFAF56"/>
<path d="M120.784 281.5L128.34 289.5H122.716L115.16 281.5H120.784Z" fill="#FFAF56" stroke="#FFAF56"/>
<path d="M132.784 281.5L140.34 289.5H134.716L127.16 281.5H132.784Z" fill="#FFAF56" stroke="#FFAF56"/>
<path d="M144.784 281.5L152.34 289.5H146.716L139.16 281.5H144.784Z" fill="#FFAF56" stroke="#FFAF56"/>
<path d="M458 285.5H154L148 279H36.5L4.5 248V201.5L21.5 187.5V61.5001L67.5 11.5H188.5L191.5 15.0701H244.973L253 24.7368H480L507.526 50.5001V235L458 285.5Z" fill="#FFAF56" fill-opacity="0.3" stroke="black"/>
</svg>
