<svg width="298" height="518" viewBox="0 0 298 518" fill="none" xmlns="http://www.w3.org/2000/svg">
<path d="M276.12 481.12L276.851 481.802L277.12 481.513V481.12H276.12ZM248.62 510.62V511.62H249.055L249.351 511.302L248.62 510.62ZM61.6196 510.62L60.9262 511.34L61.2166 511.62H61.6196V510.62ZM46.1196 1.61963V0.619629H45.6977L45.4033 0.921887L46.1196 1.61963ZM8.61963 40.1196L7.90328 39.4219L7.61963 39.7131V40.1196H8.61963ZM8.61963 459.62H7.61963V460.045L7.92625 460.34L8.61963 459.62ZM97.6196 1.61963L98.3916 0.983922L98.0916 0.619629H97.6196V1.61963ZM111.62 18.6196L110.848 19.2553L111.148 19.6196H111.62V18.6196ZM240.12 18.6196L240.796 17.8834L240.509 17.6196H240.12V18.6196ZM289.62 64.1196H290.62V63.6805L290.296 63.3834L289.62 64.1196ZM294.953 196.12C294.953 193.174 292.565 190.786 289.62 190.786C286.674 190.786 284.286 193.174 284.286 196.12C284.286 199.065 286.674 201.453 289.62 201.453C292.565 201.453 294.953 199.065 294.953 196.12ZM9.61963 161.12C9.61963 160.567 9.17191 160.12 8.61963 160.12C8.06734 160.12 7.61963 160.567 7.61963 161.12H8.61963H9.61963ZM276.12 481.12L275.388 480.438L247.888 509.938L248.62 510.62L249.351 511.302L276.851 481.802L276.12 481.12ZM248.62 510.62V509.62H61.6196V510.62V511.62H248.62V510.62ZM46.1196 1.61963L45.4033 0.921887L7.90328 39.4219L8.61963 40.1196L9.33598 40.8174L46.836 2.31737L46.1196 1.61963ZM8.61963 459.62L7.92625 460.34L60.9262 511.34L61.6196 510.62L62.313 509.899L9.31301 458.899L8.61963 459.62ZM97.6196 1.61963V0.619629L46.1196 0.619629V1.61963V2.61963L97.6196 2.61963V1.61963ZM111.62 18.6196L112.392 17.9839L98.3916 0.983922L97.6196 1.61963L96.8477 2.25534L110.848 19.2553L111.62 18.6196ZM8.61963 40.1196H7.61963V45.1196H8.61963H9.61963V40.1196H8.61963ZM276.12 260.12H275.12L275.12 481.12H276.12H277.12L277.12 260.12H276.12ZM111.62 18.6196V19.6196H240.12V18.6196V17.6196H111.62V18.6196ZM240.12 18.6196L239.443 19.3559L288.943 64.8559L289.62 64.1196L290.296 63.3834L240.796 17.8834L240.12 18.6196ZM289.62 64.1196H288.62V196.12H289.62H290.62V64.1196H289.62ZM8.61963 161.12H7.61963L7.61963 459.62H8.61963H9.61963L9.61963 161.12H8.61963Z" fill="#FFAF56"/>
<path d="M2.61957 299.121C2.61957 298.845 2.39571 298.621 2.11957 298.621C1.84342 298.621 1.61957 298.845 1.61957 299.121L2.11957 299.121L2.61957 299.121ZM2.11957 462.621L1.61957 462.621L1.61957 462.835L1.77397 462.982L2.11957 462.621ZM25.0912 481.953C23.6185 481.969 22.4374 483.175 22.4531 484.648C22.4687 486.121 23.6753 487.302 25.1479 487.286C26.6206 487.27 27.8018 486.064 27.7861 484.591C27.7704 483.119 26.5639 481.937 25.0912 481.953ZM2.11957 299.121L1.61957 299.121L1.61957 462.621L2.11957 462.621L2.61957 462.621L2.61957 299.121L2.11957 299.121ZM2.11957 462.621L1.77397 462.982L24.774 484.981L25.1196 484.62L25.4652 484.258L2.46517 462.26L2.11957 462.621Z" fill="#FFAF56"/>
<path d="M235.12 517.12H106.62" stroke="#FFAF56" stroke-linecap="round"/>
<line x1="237.298" y1="18.3848" x2="289.298" y2="66.3848" stroke="#FFAF56" stroke-width="2"/>
<path d="M161.953 10.6196C161.953 12.0923 163.147 13.2862 164.62 13.2862C166.092 13.2862 167.286 12.0923 167.286 10.6196C167.286 9.14681 166.092 7.9529 164.62 7.9529C163.147 7.9529 161.953 9.14681 161.953 10.6196ZM243.12 10.6196L243.461 10.2544L243.317 10.1196H243.12V10.6196ZM273.778 39.9847C273.98 40.1734 274.296 40.1628 274.485 39.9611C274.673 39.7595 274.663 39.4431 274.461 39.2544L274.12 39.6196L273.778 39.9847ZM164.62 10.6196V11.1196H243.12V10.6196V10.1196H164.62V10.6196ZM243.12 10.6196L242.778 10.9847L273.778 39.9847L274.12 39.6196L274.461 39.2544L243.461 10.2544L243.12 10.6196Z" fill="#FFAF56"/>
<path d="M286.12 245.12V210.12L297.12 200.12L297.12 62.6197L282.62 48.1197" stroke="#FFAF56" stroke-linecap="round"/>
<path d="M286.12 251.892L275.62 261.023V254.347L286.12 245.216V251.892Z" fill="#FFAF56" stroke="#FFAF56"/>
<path d="M10.6196 42.1196V40.1196L48.1196 1.61957" stroke="#FFAF56" stroke-width="2"/>
<path d="M16.1196 47.9037L8.11963 55.4594L8.11963 44.3266L16.1196 36.3266V47.9037Z" fill="#FFAF56" stroke="#FFAF56"/>
<path d="M16.1196 60.9037L8.11963 68.4594V62.8354L16.1196 55.2797V60.9037Z" fill="#FFAF56" stroke="#FFAF56"/>
<path d="M16.1196 72.9037L8.11963 80.4594V74.8354L16.1196 67.2797V72.9037Z" fill="#FFAF56" stroke="#FFAF56"/>
<path d="M16.1196 84.9037L8.11963 92.4594V86.8354L16.1196 79.2797V84.9037Z" fill="#FFAF56" stroke="#FFAF56"/>
<path d="M16.1196 96.9037L8.11963 104.459V98.8354L16.1196 91.2797V96.9037Z" fill="#FFAF56" stroke="#FFAF56"/>
<path d="M16.1196 108.904L8.11963 116.459V110.835L16.1196 103.28V108.904Z" fill="#FFAF56" stroke="#FFAF56"/>
<path d="M16.1196 120.904L8.11963 128.459V122.835L16.1196 115.28V120.904Z" fill="#FFAF56" stroke="#FFAF56"/>
<path d="M16.1196 132.904L8.11963 140.459V134.835L16.1196 127.28V132.904Z" fill="#FFAF56" stroke="#FFAF56"/>
<path d="M16.1196 144.904L8.11963 152.459V146.835L16.1196 139.28V144.904Z" fill="#FFAF56" stroke="#FFAF56"/>
</svg>
