<svg width="541" height="526" viewBox="0 0 541 526" fill="none" xmlns="http://www.w3.org/2000/svg">
<path d="M147.785 7.5L167.638 28.3447L167.786 28.5H374.214L374.362 28.3447L394.215 7.5H497.838L507.391 14.4482C508.331 15.1319 509.464 15.5 510.626 15.5H525.793L527.5 17.207V82.2266L527.671 82.376L535.5 89.2256V503.793L519.793 519.5H433.043L420.053 509.603L419.919 509.5H367.081L366.947 509.603L353.957 519.5H188.043L175.053 509.603L174.919 509.5H122.081L121.947 509.603L108.957 519.5H22.207L6.5 503.793V89.2256L14.3291 82.376L14.5 82.2266V17.207L16.207 15.5H31.374C32.5364 15.5 33.6693 15.1319 34.6094 14.4482L44.1621 7.5H147.785Z" fill="black" fill-opacity="0.3" stroke="#F27DD3"/>
<path d="M370 23H171L151.5 2H390.5L370 23Z" fill="black" fill-opacity="0.3" stroke="#F27DD3" stroke-width="2"/>
<path d="M172.501 514H124.501L110 525H187.001L172.501 514Z" stroke="#F27DD3"/>
<path d="M417.501 514H369.501L355 525H432.001L417.501 514Z" stroke="#F27DD3"/>
<path d="M15 9V8.5H14.7929L14.6464 8.64645L15 9ZM28.3333 9C28.3333 10.4728 29.5272 11.6667 31 11.6667C32.4728 11.6667 33.6667 10.4728 33.6667 9C33.6667 7.52724 32.4728 6.33333 31 6.33333C29.5272 6.33333 28.3333 7.52724 28.3333 9ZM7.5 80C7.5 80.2761 7.72386 80.5 8 80.5C8.27614 80.5 8.5 80.2761 8.5 80H8H7.5ZM8 16L7.64645 15.6464L7.5 15.7929V16H8ZM15 9V9.5H31V9V8.5H15V9ZM15 9L14.6464 8.64645L7.64645 15.6464L8 16L8.35355 16.3536L15.3536 9.35355L15 9ZM8 16H7.5V80H8H8.5V16H8Z" fill="#F27DD3"/>
<path d="M527 9V8.5H527.207L527.354 8.64645L527 9ZM513.667 9C513.667 10.4728 512.473 11.6667 511 11.6667C509.527 11.6667 508.333 10.4728 508.333 9C508.333 7.52724 509.527 6.33333 511 6.33333C512.473 6.33333 513.667 7.52724 513.667 9ZM534.5 80C534.5 80.2761 534.276 80.5 534 80.5C533.724 80.5 533.5 80.2761 533.5 80H534H534.5ZM534 16L534.354 15.6464L534.5 15.7929V16H534ZM527 9V9.5H511V9V8.5H527V9ZM527 9L527.354 8.64645L534.354 15.6464L534 16L533.646 16.3536L526.646 9.35355L527 9ZM534 16H534.5V80H534H533.5V16H534Z" fill="#F27DD3"/>
<path d="M17.2931 520H9.20697L6.00013 516.793V508.707L17.2931 520Z" stroke="#F27DD3"/>
<path d="M535.5 508.207V516.293L532.293 519.5H524.207L535.5 508.207Z" stroke="#F27DD3"/>
<path d="M188.663 14.94V7.26C188.663 5.22 189.683 4.2 191.723 4.2H197.763L198.663 4.9V5.72H191.703C190.796 5.72 190.343 6.17333 190.343 7.08V15.12C190.343 16.0267 190.796 16.48 191.703 16.48H197.383V11.52H193.983V10H199.063V18H191.723C189.683 18 188.663 16.98 188.663 14.94ZM206.901 15V10.6C206.901 8.6 207.901 7.6 209.901 7.6H212.501C214.501 7.6 215.501 8.6 215.501 10.6V13.42H208.501V15.2C208.501 16.1333 208.968 16.6 209.901 16.6H215.101V17.4L214.301 18H209.901C207.901 18 206.901 17 206.901 15ZM208.501 12.12H213.901V10.4C213.901 9.46667 213.434 9 212.501 9H209.901C208.968 9 208.501 9.46667 208.501 10.4V12.12ZM223.465 15V4.2H225.065V7.6H228.865V9H225.065V15.2C225.065 16.1333 225.532 16.6 226.465 16.6H229.065V17.4L228.265 18H226.465C224.465 18 223.465 17 223.465 15ZM246.102 5.66V3.78H247.862V5.66H246.102ZM246.182 18V7.6H247.782V18H246.182ZM255.987 18V7.6H261.587C263.587 7.6 264.587 8.6 264.587 10.6V18H262.987V10.4C262.987 9.46667 262.52 9 261.587 9H257.587V18H255.987ZM282.43 15V4.2H284.03V7.6H287.83V9H284.03V15.2C284.03 16.1333 284.497 16.6 285.43 16.6H288.03V17.4L287.23 18H285.43C283.43 18 282.43 17 282.43 15ZM295.182 15V10.6C295.182 8.6 296.182 7.6 298.182 7.6H300.982C302.982 7.6 303.982 8.6 303.982 10.6V15C303.982 17 302.982 18 300.982 18H298.182C296.182 18 295.182 17 295.182 15ZM296.782 15.2C296.782 16.1333 297.249 16.6 298.182 16.6H300.982C301.916 16.6 302.382 16.1333 302.382 15.2V10.4C302.382 9.46667 301.916 9 300.982 9H298.182C297.249 9 296.782 9.46667 296.782 10.4V15.2ZM311.942 15V7.6H313.542V15.2C313.542 16.1333 314.009 16.6 314.942 16.6H318.942V7.6H320.542V18H314.942C312.942 18 311.942 17 311.942 15ZM328.581 15V10.6C328.581 8.6 329.581 7.6 331.581 7.6H335.501L336.301 8.2V9H331.581C330.647 9 330.181 9.46667 330.181 10.4V15.2C330.181 16.1333 330.647 16.6 331.581 16.6H336.301V17.4L335.501 18H331.581C329.581 18 328.581 17 328.581 15ZM343.819 18V3.2H345.419V7.6H349.419C351.419 7.6 352.419 8.6 352.419 10.6V18H350.819V10.4C350.819 9.46667 350.352 9 349.419 9H345.419V18H343.819Z" fill="#F27DD3"/>
</svg>
