<svg width="180" height="180" viewBox="0 0 180 180" fill="none" xmlns="http://www.w3.org/2000/svg">
<rect width="180" height="180" rx="24" fill="black" fill-opacity="0.3"/>
<path d="M35 108H145L166 146H13L35 108Z" fill="#808080" fill-opacity="0.5"/>
<path d="M144.705 108.5L165.152 145.5H13.8672L35.2881 108.5H144.705Z" stroke="white" stroke-opacity="0.5"/>
<path d="M74 132H106L109 141H71L74 132Z" fill="white" fill-opacity="0.5"/>
<path d="M70.6842 142H89.5V144H70L70.6842 142Z" fill="white" fill-opacity="0.5"/>
<path d="M109.131 142H90.5V144H110L109.131 142Z" fill="white" fill-opacity="0.5"/>
<path d="M35 34H145V103H35V34Z" fill="#808080" fill-opacity="0.3"/>
<path d="M144.5 34.5V102.5H35.5V34.5H144.5Z" stroke="white" stroke-opacity="0.5"/>
<circle cx="51" cy="86" r="3.75" stroke="#FFAF56" stroke-width="0.5"/>
<mask id="path-10-inside-1_333_137" fill="white">
<path d="M51.5 85C51.5 85.2761 51.2761 85.5 51 85.5C50.7238 85.5 50.5 85.2761 50.5 85C50.5 84.7239 50.7238 84.5 51 84.5C51.2761 84.5 51.5 84.7239 51.5 85Z"/>
<path d="M50.5 86.5C50.5 86.7761 50.2761 87 50 87C49.7239 87 49.5 86.7761 49.5 86.5C49.5 86.2239 49.7239 86 50 86C50.2761 86 50.5 86.2239 50.5 86.5Z"/>
<path d="M52.5 86.5C52.5 86.7761 52.2761 87 52 87C51.7239 87 51.5 86.7761 51.5 86.5C51.5 86.2239 51.7239 86 52 86C52.2761 86 52.5 86.2239 52.5 86.5Z"/>
</mask>
<path d="M51.5 85C51.5 85.2761 51.2761 85.5 51 85.5C50.7238 85.5 50.5 85.2761 50.5 85C50.5 84.7239 50.7238 84.5 51 84.5C51.2761 84.5 51.5 84.7239 51.5 85Z" fill="#FFAF56"/>
<path d="M50.5 86.5C50.5 86.7761 50.2761 87 50 87C49.7239 87 49.5 86.7761 49.5 86.5C49.5 86.2239 49.7239 86 50 86C50.2761 86 50.5 86.2239 50.5 86.5Z" fill="#FFAF56"/>
<path d="M52.5 86.5C52.5 86.7761 52.2761 87 52 87C51.7239 87 51.5 86.7761 51.5 86.5C51.5 86.2239 51.7239 86 52 86C52.2761 86 52.5 86.2239 52.5 86.5Z" fill="#FFAF56"/>
<path d="M51.5 85H50.5C50.5 84.7239 50.7238 84.5 51 84.5V85.5V86.5C51.8284 86.5 52.5 85.8284 52.5 85H51.5ZM51 85.5V84.5C51.2761 84.5 51.5 84.7239 51.5 85H50.5H49.5C49.5 85.8284 50.1715 86.5 51 86.5V85.5ZM50.5 85H51.5C51.5 85.2761 51.2761 85.5 51 85.5V84.5V83.5C50.1715 83.5 49.5 84.1716 49.5 85H50.5ZM51 84.5V85.5C50.7238 85.5 50.5 85.2761 50.5 85H51.5H52.5C52.5 84.1716 51.8284 83.5 51 83.5V84.5ZM50.5 86.5H49.5C49.5 86.2239 49.7239 86 50 86V87V88C50.8284 88 51.5 87.3284 51.5 86.5H50.5ZM50 87V86C50.2761 86 50.5 86.2239 50.5 86.5H49.5H48.5C48.5 87.3284 49.1716 88 50 88V87ZM49.5 86.5H50.5C50.5 86.7761 50.2761 87 50 87V86V85C49.1716 85 48.5 85.6716 48.5 86.5H49.5ZM50 86V87C49.7239 87 49.5 86.7761 49.5 86.5H50.5H51.5C51.5 85.6716 50.8284 85 50 85V86ZM52.5 86.5H51.5C51.5 86.2239 51.7239 86 52 86V87V88C52.8284 88 53.5 87.3284 53.5 86.5H52.5ZM52 87V86C52.2761 86 52.5 86.2239 52.5 86.5H51.5H50.5C50.5 87.3284 51.1716 88 52 88V87ZM51.5 86.5H52.5C52.5 86.7761 52.2761 87 52 87V86V85C51.1716 85 50.5 85.6716 50.5 86.5H51.5ZM52 86V87C51.7239 87 51.5 86.7761 51.5 86.5H52.5H53.5C53.5 85.6716 52.8284 85 52 85V86Z" fill="#FFAF56" mask="url(#path-10-inside-1_333_137)"/>
<path d="M51 89.95V91.5" stroke="#FFAF56" stroke-width="0.5"/>
<mask id="path-13-inside-2_333_137" fill="white">
<path d="M51 93L50.134 91.5H51.866L51 93Z"/>
</mask>
<path d="M51 93L50.134 91.5H51.866L51 93Z" fill="#FFAF56"/>
<path d="M51 93L50.134 93.5L51 95L51.866 93.5L51 93ZM50.134 91.5V90.5H48.4019L49.2679 92L50.134 91.5ZM51.866 91.5L52.7321 92L53.5981 90.5H51.866V91.5ZM51 93L51.866 92.5L51 91L50.134 91.5L49.2679 92L50.134 93.5L51 93ZM50.134 91.5V92.5H51.866V91.5V90.5H50.134V91.5ZM51.866 91.5L51 91L50.134 92.5L51 93L51.866 93.5L52.7321 92L51.866 91.5Z" fill="#FFAF56" mask="url(#path-13-inside-2_333_137)"/>
<path d="M51 80.5V82.05" stroke="#FFAF56" stroke-width="0.5"/>
<mask id="path-16-inside-3_333_137" fill="white">
<path d="M51 79L51.866 80.5H50.134L51 79Z"/>
</mask>
<path d="M51 79L51.866 80.5H50.134L51 79Z" fill="#FFAF56"/>
<path d="M51 79L51.866 78.5L51 77L50.134 78.5L51 79ZM51.866 80.5V81.5H53.5981L52.7321 80L51.866 80.5ZM50.134 80.5L49.2679 80L48.4019 81.5H50.134V80.5ZM51 79L50.134 79.5L51 81L51.866 80.5L52.7321 80L51.866 78.5L51 79ZM51.866 80.5V79.5H50.134V80.5V81.5H51.866V80.5ZM50.134 80.5L51 81L51.866 79.5L51 79L50.134 78.5L49.2679 80L50.134 80.5Z" fill="#FFAF56" mask="url(#path-16-inside-3_333_137)"/>
<path d="M54.9502 86H56.5002" stroke="#FFAF56" stroke-width="0.5"/>
<mask id="path-19-inside-4_333_137" fill="white">
<path d="M58 86L56.5 86.866V85.134L58 86Z"/>
</mask>
<path d="M58 86L56.5 86.866V85.134L58 86Z" fill="#FFAF56"/>
<path d="M58 86L58.5 86.866L60 86L58.5 85.134L58 86ZM56.5 86.866H55.5V88.5981L57 87.7321L56.5 86.866ZM56.5 85.134L57 84.2679L55.5 83.4019V85.134H56.5ZM58 86L57.5 85.134L56 86L56.5 86.866L57 87.7321L58.5 86.866L58 86ZM56.5 86.866H57.5V85.134H56.5H55.5V86.866H56.5ZM56.5 85.134L56 86L57.5 86.866L58 86L58.5 85.134L57 84.2679L56.5 85.134Z" fill="#FFAF56" mask="url(#path-19-inside-4_333_137)"/>
<path d="M45.5 86H47.05" stroke="#FFAF56" stroke-width="0.5"/>
<mask id="path-22-inside-5_333_137" fill="white">
<path d="M44 86L45.5 85.134V86.866L44 86Z"/>
</mask>
<path d="M44 86L45.5 85.134V86.866L44 86Z" fill="#FFAF56"/>
<path d="M44 86L43.5 85.134L42 86L43.5 86.866L44 86ZM45.5 85.134H46.5V83.4019L45 84.2679L45.5 85.134ZM45.5 86.866L45 87.7321L46.5 88.5981V86.866H45.5ZM44 86L44.5 86.866L46 86L45.5 85.134L45 84.2679L43.5 85.134L44 86ZM45.5 85.134H44.5V86.866H45.5H46.5V85.134H45.5ZM45.5 86.866L46 86L44.5 85.134L44 86L43.5 86.866L45 87.7321L45.5 86.866Z" fill="#FFAF56" mask="url(#path-22-inside-5_333_137)"/>
<path d="M53.7939 83.2069L54.89 82.1109" stroke="#FFAF56" stroke-width="0.5"/>
<mask id="path-25-inside-6_333_137" fill="white">
<path d="M55.9503 81.0502L55.502 82.7233L54.2772 81.4985L55.9503 81.0502Z"/>
</mask>
<path d="M55.9503 81.0502L55.502 82.7233L54.2772 81.4985L55.9503 81.0502Z" fill="#FFAF56"/>
<path d="M55.9503 81.0502L56.9162 81.3091L57.3645 79.636L55.6915 80.0843L55.9503 81.0502ZM55.502 82.7233L54.7949 83.4304L56.0196 84.6551L56.4679 82.9821L55.502 82.7233ZM54.2772 81.4985L54.0184 80.5326L52.3454 80.9809L53.5701 82.2056L54.2772 81.4985ZM55.9503 81.0502L54.9843 80.7914L54.5361 82.4645L55.502 82.7233L56.4679 82.9821L56.9162 81.3091L55.9503 81.0502ZM55.502 82.7233L56.2091 82.0162L54.9843 80.7914L54.2772 81.4985L53.5701 82.2056L54.7949 83.4304L55.502 82.7233ZM54.2772 81.4985L54.5361 82.4645L56.2091 82.0162L55.9503 81.0502L55.6915 80.0843L54.0184 80.5326L54.2772 81.4985Z" fill="#FFAF56" mask="url(#path-25-inside-6_333_137)"/>
<path d="M47.1113 89.889L48.2074 88.793" stroke="#FFAF56" stroke-width="0.5"/>
<mask id="path-28-inside-7_333_137" fill="white">
<path d="M46.0507 90.9498L46.499 89.2767L47.7237 90.5015L46.0507 90.9498Z"/>
</mask>
<path d="M46.0507 90.9498L46.499 89.2767L47.7237 90.5015L46.0507 90.9498Z" fill="#FFAF56"/>
<path d="M46.0507 90.9498L45.0848 90.6909L44.6365 92.364L46.3095 91.9157L46.0507 90.9498ZM46.499 89.2767L47.2061 88.5696L45.9814 87.3449L45.5331 89.0179L46.499 89.2767ZM47.7237 90.5015L47.9826 91.4674L49.6556 91.0191L48.4308 89.7944L47.7237 90.5015ZM46.0507 90.9498L47.0166 91.2086L47.4649 89.5355L46.499 89.2767L45.5331 89.0179L45.0848 90.6909L46.0507 90.9498ZM46.499 89.2767L45.7919 89.9838L47.0166 91.2086L47.7237 90.5015L48.4308 89.7944L47.2061 88.5696L46.499 89.2767ZM47.7237 90.5015L47.4649 89.5355L45.7919 89.9838L46.0507 90.9498L46.3095 91.9157L47.9826 91.4674L47.7237 90.5015Z" fill="#FFAF56" mask="url(#path-28-inside-7_333_137)"/>
<path d="M53.793 88.793L54.889 89.889" stroke="#FFAF56" stroke-width="0.5"/>
<mask id="path-31-inside-8_333_137" fill="white">
<path d="M55.9491 90.9497L54.2761 90.5014L55.5009 89.2766L55.9491 90.9497Z"/>
</mask>
<path d="M55.9491 90.9497L54.2761 90.5014L55.5009 89.2766L55.9491 90.9497Z" fill="#FFAF56"/>
<path d="M55.9491 90.9497L55.6903 91.9156L57.3634 92.3639L56.9151 90.6908L55.9491 90.9497ZM54.2761 90.5014L53.569 89.7943L52.3443 91.019L54.0173 91.4673L54.2761 90.5014ZM55.5009 89.2766L56.4668 89.0178L56.0185 87.3448L54.7937 88.5695L55.5009 89.2766ZM55.9491 90.9497L56.208 89.9837L54.5349 89.5354L54.2761 90.5014L54.0173 91.4673L55.6903 91.9156L55.9491 90.9497ZM54.2761 90.5014L54.9832 91.2085L56.208 89.9837L55.5009 89.2766L54.7937 88.5695L53.569 89.7943L54.2761 90.5014ZM55.5009 89.2766L54.5349 89.5354L54.9832 91.2085L55.9491 90.9497L56.9151 90.6908L56.4668 89.0178L55.5009 89.2766Z" fill="#FFAF56" mask="url(#path-31-inside-8_333_137)"/>
<path d="M47.1104 82.1108L48.2064 83.2069" stroke="#FFAF56" stroke-width="0.5"/>
<mask id="path-34-inside-9_333_137" fill="white">
<path d="M46.0499 81.0502L47.7229 81.4985L46.4982 82.7233L46.0499 81.0502Z"/>
</mask>
<path d="M46.0499 81.0502L47.7229 81.4985L46.4982 82.7233L46.0499 81.0502Z" fill="#FFAF56"/>
<path d="M46.0499 81.0502L46.3087 80.0843L44.6357 79.636L45.084 81.309L46.0499 81.0502ZM47.7229 81.4985L48.43 82.2056L49.6548 80.9809L47.9817 80.5326L47.7229 81.4985ZM46.4982 82.7233L45.5322 82.9821L45.9805 84.6551L47.2053 83.4304L46.4982 82.7233ZM46.0499 81.0502L45.7911 82.0161L47.4641 82.4644L47.7229 81.4985L47.9817 80.5326L46.3087 80.0843L46.0499 81.0502ZM47.7229 81.4985L47.0158 80.7914L45.7911 82.0161L46.4982 82.7233L47.2053 83.4304L48.43 82.2056L47.7229 81.4985ZM46.4982 82.7233L47.4641 82.4644L47.0158 80.7914L46.0499 81.0502L45.084 81.309L45.5322 82.9821L46.4982 82.7233Z" fill="#FFAF56" mask="url(#path-34-inside-9_333_137)"/>
<circle cx="90" cy="86" r="3.75" stroke="#A4D1FD" stroke-width="0.5"/>
<mask id="path-37-inside-10_333_137" fill="white">
<path d="M90.5 85C90.5 85.2761 90.2761 85.5 90 85.5C89.7238 85.5 89.5 85.2761 89.5 85C89.5 84.7239 89.7238 84.5 90 84.5C90.2761 84.5 90.5 84.7239 90.5 85Z"/>
<path d="M89.5 86.5C89.5 86.7761 89.2761 87 89 87C88.7239 87 88.5 86.7761 88.5 86.5C88.5 86.2239 88.7239 86 89 86C89.2761 86 89.5 86.2239 89.5 86.5Z"/>
<path d="M91.5 86.5C91.5 86.7761 91.2761 87 91 87C90.7239 87 90.5 86.7761 90.5 86.5C90.5 86.2239 90.7239 86 91 86C91.2761 86 91.5 86.2239 91.5 86.5Z"/>
</mask>
<path d="M90.5 85C90.5 85.2761 90.2761 85.5 90 85.5C89.7238 85.5 89.5 85.2761 89.5 85C89.5 84.7239 89.7238 84.5 90 84.5C90.2761 84.5 90.5 84.7239 90.5 85Z" fill="#A4D1FD"/>
<path d="M89.5 86.5C89.5 86.7761 89.2761 87 89 87C88.7239 87 88.5 86.7761 88.5 86.5C88.5 86.2239 88.7239 86 89 86C89.2761 86 89.5 86.2239 89.5 86.5Z" fill="#A4D1FD"/>
<path d="M91.5 86.5C91.5 86.7761 91.2761 87 91 87C90.7239 87 90.5 86.7761 90.5 86.5C90.5 86.2239 90.7239 86 91 86C91.2761 86 91.5 86.2239 91.5 86.5Z" fill="#A4D1FD"/>
<path d="M90.5 85H89.5C89.5 84.7239 89.7238 84.5 90 84.5V85.5V86.5C90.8284 86.5 91.5 85.8284 91.5 85H90.5ZM90 85.5V84.5C90.2761 84.5 90.5 84.7239 90.5 85H89.5H88.5C88.5 85.8284 89.1715 86.5 90 86.5V85.5ZM89.5 85H90.5C90.5 85.2761 90.2761 85.5 90 85.5V84.5V83.5C89.1715 83.5 88.5 84.1716 88.5 85H89.5ZM90 84.5V85.5C89.7238 85.5 89.5 85.2761 89.5 85H90.5H91.5C91.5 84.1716 90.8284 83.5 90 83.5V84.5ZM89.5 86.5H88.5C88.5 86.2239 88.7239 86 89 86V87V88C89.8284 88 90.5 87.3284 90.5 86.5H89.5ZM89 87V86C89.2761 86 89.5 86.2239 89.5 86.5H88.5H87.5C87.5 87.3284 88.1716 88 89 88V87ZM88.5 86.5H89.5C89.5 86.7761 89.2761 87 89 87V86V85C88.1716 85 87.5 85.6716 87.5 86.5H88.5ZM89 86V87C88.7239 87 88.5 86.7761 88.5 86.5H89.5H90.5C90.5 85.6716 89.8284 85 89 85V86ZM91.5 86.5H90.5C90.5 86.2239 90.7239 86 91 86V87V88C91.8284 88 92.5 87.3284 92.5 86.5H91.5ZM91 87V86C91.2761 86 91.5 86.2239 91.5 86.5H90.5H89.5C89.5 87.3284 90.1716 88 91 88V87ZM90.5 86.5H91.5C91.5 86.7761 91.2761 87 91 87V86V85C90.1716 85 89.5 85.6716 89.5 86.5H90.5ZM91 86V87C90.7239 87 90.5 86.7761 90.5 86.5H91.5H92.5C92.5 85.6716 91.8284 85 91 85V86Z" fill="#A4D1FD" mask="url(#path-37-inside-10_333_137)"/>
<path d="M90 89.95V91.5" stroke="#A4D1FD" stroke-width="0.5"/>
<mask id="path-40-inside-11_333_137" fill="white">
<path d="M90 93L89.134 91.5H90.866L90 93Z"/>
</mask>
<path d="M90 93L89.134 91.5H90.866L90 93Z" fill="#A4D1FD"/>
<path d="M90 93L89.134 93.5L90 95L90.866 93.5L90 93ZM89.134 91.5V90.5H87.4019L88.2679 92L89.134 91.5ZM90.866 91.5L91.7321 92L92.5981 90.5H90.866V91.5ZM90 93L90.866 92.5L90 91L89.134 91.5L88.2679 92L89.134 93.5L90 93ZM89.134 91.5V92.5H90.866V91.5V90.5H89.134V91.5ZM90.866 91.5L90 91L89.134 92.5L90 93L90.866 93.5L91.7321 92L90.866 91.5Z" fill="#A4D1FD" mask="url(#path-40-inside-11_333_137)"/>
<path d="M90 80.5V82.05" stroke="#A4D1FD" stroke-width="0.5"/>
<mask id="path-43-inside-12_333_137" fill="white">
<path d="M90 79L90.866 80.5H89.134L90 79Z"/>
</mask>
<path d="M90 79L90.866 80.5H89.134L90 79Z" fill="#A4D1FD"/>
<path d="M90 79L90.866 78.5L90 77L89.134 78.5L90 79ZM90.866 80.5V81.5H92.5981L91.7321 80L90.866 80.5ZM89.134 80.5L88.2679 80L87.4019 81.5H89.134V80.5ZM90 79L89.134 79.5L90 81L90.866 80.5L91.7321 80L90.866 78.5L90 79ZM90.866 80.5V79.5H89.134V80.5V81.5H90.866V80.5ZM89.134 80.5L90 81L90.866 79.5L90 79L89.134 78.5L88.2679 80L89.134 80.5Z" fill="#A4D1FD" mask="url(#path-43-inside-12_333_137)"/>
<path d="M93.9502 86H95.5002" stroke="#A4D1FD" stroke-width="0.5"/>
<mask id="path-46-inside-13_333_137" fill="white">
<path d="M97 86L95.5 86.866V85.134L97 86Z"/>
</mask>
<path d="M97 86L95.5 86.866V85.134L97 86Z" fill="#A4D1FD"/>
<path d="M97 86L97.5 86.866L99 86L97.5 85.134L97 86ZM95.5 86.866H94.5V88.5981L96 87.7321L95.5 86.866ZM95.5 85.134L96 84.2679L94.5 83.4019V85.134H95.5ZM97 86L96.5 85.134L95 86L95.5 86.866L96 87.7321L97.5 86.866L97 86ZM95.5 86.866H96.5V85.134H95.5H94.5V86.866H95.5ZM95.5 85.134L95 86L96.5 86.866L97 86L97.5 85.134L96 84.2679L95.5 85.134Z" fill="#A4D1FD" mask="url(#path-46-inside-13_333_137)"/>
<path d="M84.5 86H86.05" stroke="#A4D1FD" stroke-width="0.5"/>
<mask id="path-49-inside-14_333_137" fill="white">
<path d="M83 86L84.5 85.134V86.866L83 86Z"/>
</mask>
<path d="M83 86L84.5 85.134V86.866L83 86Z" fill="#A4D1FD"/>
<path d="M83 86L82.5 85.134L81 86L82.5 86.866L83 86ZM84.5 85.134H85.5V83.4019L84 84.2679L84.5 85.134ZM84.5 86.866L84 87.7321L85.5 88.5981V86.866H84.5ZM83 86L83.5 86.866L85 86L84.5 85.134L84 84.2679L82.5 85.134L83 86ZM84.5 85.134H83.5V86.866H84.5H85.5V85.134H84.5ZM84.5 86.866L85 86L83.5 85.134L83 86L82.5 86.866L84 87.7321L84.5 86.866Z" fill="#A4D1FD" mask="url(#path-49-inside-14_333_137)"/>
<path d="M92.7939 83.2069L93.89 82.1109" stroke="#A4D1FD" stroke-width="0.5"/>
<mask id="path-52-inside-15_333_137" fill="white">
<path d="M94.9503 81.0502L94.502 82.7233L93.2772 81.4985L94.9503 81.0502Z"/>
</mask>
<path d="M94.9503 81.0502L94.502 82.7233L93.2772 81.4985L94.9503 81.0502Z" fill="#A4D1FD"/>
<path d="M94.9503 81.0502L95.9162 81.3091L96.3645 79.636L94.6915 80.0843L94.9503 81.0502ZM94.502 82.7233L93.7949 83.4304L95.0196 84.6551L95.4679 82.9821L94.502 82.7233ZM93.2772 81.4985L93.0184 80.5326L91.3454 80.9809L92.5701 82.2056L93.2772 81.4985ZM94.9503 81.0502L93.9843 80.7914L93.5361 82.4645L94.502 82.7233L95.4679 82.9821L95.9162 81.3091L94.9503 81.0502ZM94.502 82.7233L95.2091 82.0162L93.9843 80.7914L93.2772 81.4985L92.5701 82.2056L93.7949 83.4304L94.502 82.7233ZM93.2772 81.4985L93.5361 82.4645L95.2091 82.0162L94.9503 81.0502L94.6915 80.0843L93.0184 80.5326L93.2772 81.4985Z" fill="#A4D1FD" mask="url(#path-52-inside-15_333_137)"/>
<path d="M86.1113 89.889L87.2074 88.793" stroke="#A4D1FD" stroke-width="0.5"/>
<mask id="path-55-inside-16_333_137" fill="white">
<path d="M85.0507 90.9498L85.499 89.2767L86.7237 90.5015L85.0507 90.9498Z"/>
</mask>
<path d="M85.0507 90.9498L85.499 89.2767L86.7237 90.5015L85.0507 90.9498Z" fill="#A4D1FD"/>
<path d="M85.0507 90.9498L84.0848 90.6909L83.6365 92.364L85.3095 91.9157L85.0507 90.9498ZM85.499 89.2767L86.2061 88.5696L84.9814 87.3449L84.5331 89.0179L85.499 89.2767ZM86.7237 90.5015L86.9826 91.4674L88.6556 91.0191L87.4308 89.7944L86.7237 90.5015ZM85.0507 90.9498L86.0166 91.2086L86.4649 89.5355L85.499 89.2767L84.5331 89.0179L84.0848 90.6909L85.0507 90.9498ZM85.499 89.2767L84.7919 89.9838L86.0166 91.2086L86.7237 90.5015L87.4308 89.7944L86.2061 88.5696L85.499 89.2767ZM86.7237 90.5015L86.4649 89.5355L84.7919 89.9838L85.0507 90.9498L85.3095 91.9157L86.9826 91.4674L86.7237 90.5015Z" fill="#A4D1FD" mask="url(#path-55-inside-16_333_137)"/>
<path d="M92.793 88.793L93.889 89.889" stroke="#A4D1FD" stroke-width="0.5"/>
<mask id="path-58-inside-17_333_137" fill="white">
<path d="M94.9491 90.9497L93.2761 90.5014L94.5009 89.2766L94.9491 90.9497Z"/>
</mask>
<path d="M94.9491 90.9497L93.2761 90.5014L94.5009 89.2766L94.9491 90.9497Z" fill="#A4D1FD"/>
<path d="M94.9491 90.9497L94.6903 91.9156L96.3634 92.3639L95.9151 90.6908L94.9491 90.9497ZM93.2761 90.5014L92.569 89.7943L91.3443 91.019L93.0173 91.4673L93.2761 90.5014ZM94.5009 89.2766L95.4668 89.0178L95.0185 87.3448L93.7937 88.5695L94.5009 89.2766ZM94.9491 90.9497L95.208 89.9837L93.5349 89.5354L93.2761 90.5014L93.0173 91.4673L94.6903 91.9156L94.9491 90.9497ZM93.2761 90.5014L93.9832 91.2085L95.208 89.9837L94.5009 89.2766L93.7937 88.5695L92.569 89.7943L93.2761 90.5014ZM94.5009 89.2766L93.5349 89.5354L93.9832 91.2085L94.9491 90.9497L95.9151 90.6908L95.4668 89.0178L94.5009 89.2766Z" fill="#A4D1FD" mask="url(#path-58-inside-17_333_137)"/>
<path d="M86.1104 82.1108L87.2064 83.2069" stroke="#A4D1FD" stroke-width="0.5"/>
<mask id="path-61-inside-18_333_137" fill="white">
<path d="M85.0499 81.0502L86.7229 81.4985L85.4982 82.7233L85.0499 81.0502Z"/>
</mask>
<path d="M85.0499 81.0502L86.7229 81.4985L85.4982 82.7233L85.0499 81.0502Z" fill="#A4D1FD"/>
<path d="M85.0499 81.0502L85.3087 80.0843L83.6357 79.636L84.084 81.309L85.0499 81.0502ZM86.7229 81.4985L87.43 82.2056L88.6548 80.9809L86.9817 80.5326L86.7229 81.4985ZM85.4982 82.7233L84.5322 82.9821L84.9805 84.6551L86.2053 83.4304L85.4982 82.7233ZM85.0499 81.0502L84.7911 82.0161L86.4641 82.4644L86.7229 81.4985L86.9817 80.5326L85.3087 80.0843L85.0499 81.0502ZM86.7229 81.4985L86.0158 80.7914L84.7911 82.0161L85.4982 82.7233L86.2053 83.4304L87.43 82.2056L86.7229 81.4985ZM85.4982 82.7233L86.4641 82.4644L86.0158 80.7914L85.0499 81.0502L84.084 81.309L84.5322 82.9821L85.4982 82.7233Z" fill="#A4D1FD" mask="url(#path-61-inside-18_333_137)"/>
<path d="M45.767 66V52.2H48.647V63.4H54.607V66H45.767ZM59.364 62.76V58.68C59.364 56.52 60.444 55.44 62.604 55.44H65.404C67.564 55.44 68.644 56.52 68.644 58.68V62.76C68.644 64.92 67.564 66 65.404 66H62.604C60.444 66 59.364 64.92 59.364 62.76ZM62.124 62.96C62.124 63.3867 62.3373 63.6 62.764 63.6H65.244C65.6707 63.6 65.884 63.3867 65.884 62.96V58.48C65.884 58.0533 65.6707 57.84 65.244 57.84H62.764C62.3373 57.84 62.124 58.0533 62.124 58.48V62.96ZM77.0399 66C74.8799 66 73.7999 64.94 73.7999 62.82C73.7999 60.7 74.8799 59.64 77.0399 59.64H79.7999V58.48C79.7999 58.0533 79.5866 57.84 79.1599 57.84H74.9199V56.34L76.1199 55.44H79.3199C81.4799 55.44 82.5599 56.52 82.5599 58.68V66H77.0399ZM76.5599 62.96C76.5599 63.3867 76.7733 63.6 77.1999 63.6H79.7999V61.76H77.1999C76.7733 61.76 76.5599 61.9733 76.5599 62.4V62.96ZM88.196 62.76V58.68C88.196 56.52 89.276 55.44 91.436 55.44H94.516V51.2H97.276V66H91.436C89.276 66 88.196 64.92 88.196 62.76ZM90.956 62.96C90.956 63.3867 91.1693 63.6 91.596 63.6H94.516V57.84H91.596C91.1693 57.84 90.956 58.0533 90.956 58.48V62.96ZM103.093 53.7V51H105.973V53.7H103.093ZM103.153 66V55.44H105.913V66H103.153ZM111.797 66V55.44H117.637C119.797 55.44 120.877 56.52 120.877 58.68V66H118.117V58.48C118.117 58.0533 117.904 57.84 117.477 57.84H114.557V66H111.797ZM126.432 62.76V58.68C126.432 56.52 127.512 55.44 129.672 55.44H135.512V66.76C135.512 68.92 134.432 70 132.272 70H128.532L127.332 69.1V67.6H132.112C132.539 67.6 132.752 67.3867 132.752 66.96V66H129.672C127.512 66 126.432 64.92 126.432 62.76ZM129.192 62.96C129.192 63.3867 129.406 63.6 129.832 63.6H132.752V57.84H129.832C129.406 57.84 129.192 58.0533 129.192 58.48V62.96Z" fill="white"/>
</svg>
