<svg width="79" height="100" viewBox="0 0 79 100" fill="none" xmlns="http://www.w3.org/2000/svg" xmlns:xlink="http://www.w3.org/1999/xlink">
<path d="M73.5 77L39.5 94L5.5 77V23L39.5 6L73.5 23V77Z" stroke="#B1FFBF" stroke-width="2"/>
<path d="M39.5 5.5V3.5" stroke="#B1FFBF" stroke-width="0.5"/>
<path d="M39.5 0.25C40.4665 0.25 41.25 1.0335 41.25 2C41.25 2.9665 40.4665 3.75 39.5 3.75C38.5335 3.75 37.75 2.9665 37.75 2C37.75 1.0335 38.5335 0.25 39.5 0.25Z" stroke="#B1FFBF" stroke-width="0.5"/>
<path d="M76.5 19.75C77.1904 19.75 77.75 20.3096 77.75 21C77.75 21.6904 77.1904 22.25 76.5 22.25C75.8096 22.25 75.25 21.6904 75.25 21C75.25 20.3096 75.8096 19.75 76.5 19.75Z" stroke="#B1FFBF" stroke-width="0.5"/>
<path d="M76.5 77.75C77.1904 77.75 77.75 78.3096 77.75 79C77.75 79.6904 77.1904 80.25 76.5 80.25C75.8096 80.25 75.25 79.6904 75.25 79C75.25 78.3096 75.8096 77.75 76.5 77.75Z" stroke="#B1FFBF" stroke-width="0.5"/>
<path d="M2.5 19.75C3.19036 19.75 3.75 20.3096 3.75 21C3.75 21.6904 3.19036 22.25 2.5 22.25C1.80964 22.25 1.25 21.6904 1.25 21C1.25 20.3096 1.80964 19.75 2.5 19.75Z" stroke="#B1FFBF" stroke-width="0.5"/>
<path d="M2.5 77.75C3.19036 77.75 3.75 78.3096 3.75 79C3.75 79.6904 3.19036 80.25 2.5 80.25C1.80964 80.25 1.25 79.6904 1.25 79C1.25 78.3096 1.80964 77.75 2.5 77.75Z" stroke="#B1FFBF" stroke-width="0.5"/>
<path d="M39.5 96.5V94.5" stroke="#B1FFBF" stroke-width="0.5"/>
<path d="M39.5 96.25C40.4665 96.25 41.25 97.0335 41.25 98C41.25 98.9665 40.4665 99.75 39.5 99.75C38.5335 99.75 37.75 98.9665 37.75 98C37.75 97.0335 38.5335 96.25 39.5 96.25Z" stroke="#B1FFBF" stroke-width="0.5"/>
<path d="M71.5 24.5V75.5L39.5 91.5L7.5 75.5V24.5L39.5 8.5L71.5 24.5Z" fill="url(#pattern0_238_18)" fill-opacity="0.3" stroke="#B1FFBF" stroke-width="0.5"/>
<path d="M51.1455 6.82275L50.8227 5.8545L49.8545 6.17725L50.1773 7.1455L51.1455 6.82275ZM41.5559 1.8882C41.4942 1.85732 41.4191 1.88235 41.3882 1.9441C41.3573 2.00585 41.3824 2.08093 41.4441 2.1118L41.5 2L41.5559 1.8882ZM50.5 6.5L50.5559 6.3882L41.5559 1.8882L41.5 2L41.4441 2.1118L50.4441 6.6118L50.5 6.5Z" fill="#B1FFBF"/>
<path d="M47.3333 8C47.3333 8.36819 47.6318 8.66667 48 8.66667C48.3682 8.66667 48.6667 8.36819 48.6667 8C48.6667 7.63181 48.3682 7.33333 48 7.33333C47.6318 7.33333 47.3333 7.63181 47.3333 8ZM41.0559 4.3882C40.9942 4.35732 40.9191 4.38235 40.8882 4.4441C40.8573 4.50585 40.8824 4.58093 40.9441 4.6118L41 4.5L41.0559 4.3882ZM48 8L48.0559 7.8882L41.0559 4.3882L41 4.5L40.9441 4.6118L47.9441 8.1118L48 8Z" fill="#B1FFBF"/>
<path d="M51.5 8.5H51.625V8.42275L51.5559 8.3882L51.5 8.5ZM45.8333 6C45.8333 6.36819 46.1318 6.66667 46.5 6.66667C46.8682 6.66667 47.1667 6.36819 47.1667 6C47.1667 5.63181 46.8682 5.33333 46.5 5.33333C46.1318 5.33333 45.8333 5.63181 45.8333 6ZM51.5 9.5H51.375V9.57638L51.443 9.61123L51.5 9.5ZM71 19.5L70.943 19.6112L70.9698 19.625H71V19.5ZM74 19.5L74.0693 19.396L74.0378 19.375H74V19.5ZM75.4307 20.604C75.4881 20.6423 75.5657 20.6268 75.604 20.5693C75.6423 20.5119 75.6268 20.4343 75.5693 20.396L75.5 20.5L75.4307 20.604ZM51.5 8.5L51.5559 8.3882L46.5559 5.8882L46.5 6L46.4441 6.1118L51.4441 8.6118L51.5 8.5ZM51.5 8.5H51.375V9.5H51.5H51.625V8.5H51.5ZM51.5 9.5L51.443 9.61123L70.943 19.6112L71 19.5L71.057 19.3888L51.557 9.38877L51.5 9.5ZM71 19.5V19.625H74V19.5V19.375H71V19.5ZM74 19.5L73.9307 19.604L75.4307 20.604L75.5 20.5L75.5693 20.396L74.0693 19.396L74 19.5Z" fill="#B1FFBF"/>
<path d="M76.5 29L76.604 29.0693L76.625 29.0378V29H76.5ZM75.5 30.5L75.396 30.4307L75.375 30.4622V30.5H75.5ZM74.8333 44C74.8333 44.3682 75.1318 44.6667 75.5 44.6667C75.8682 44.6667 76.1667 44.3682 76.1667 44C76.1667 43.6318 75.8682 43.3333 75.5 43.3333C75.1318 43.3333 74.8333 43.6318 74.8333 44ZM76.5 29H76.625V22H76.5H76.375V29H76.5ZM76.5 29L76.396 28.9307L75.396 30.4307L75.5 30.5L75.604 30.5693L76.604 29.0693L76.5 29ZM75.5 30.5H75.375V44H75.5H75.625V30.5H75.5Z" fill="#B1FFBF"/>
<path d="M77.5 44.5L77.604 44.5693L77.625 44.5378V44.5H77.5ZM76.8333 36C76.8333 36.3682 77.1318 36.6667 77.5 36.6667C77.8682 36.6667 78.1667 36.3682 78.1667 36C78.1667 35.6318 77.8682 35.3333 77.5 35.3333C77.1318 35.3333 76.8333 35.6318 76.8333 36ZM76.5 46L76.396 45.9307L76.375 45.9622V46H76.5ZM77.5 44.5H77.625V36H77.5H77.375V44.5H77.5ZM77.5 44.5L77.396 44.4307L76.396 45.9307L76.5 46L76.604 46.0693L77.604 44.5693L77.5 44.5ZM76.5 46H76.375V78H76.5H76.625V46H76.5Z" fill="#B1FFBF"/>
<path d="M41 97L75.5 79.5" stroke="#B1FFBF" stroke-width="0.25"/>
<path d="M27.8545 93.1773L28.1773 94.1455L29.1455 93.8227L28.8227 92.8545L27.8545 93.1773ZM37.4441 98.1118C37.5058 98.1427 37.5809 98.1176 37.6118 98.0559C37.6427 97.9942 37.6176 97.9191 37.5559 97.8882L37.5 98L37.4441 98.1118ZM28.5 93.5L28.4441 93.6118L37.4441 98.1118L37.5 98L37.5559 97.8882L28.5559 93.3882L28.5 93.5Z" fill="#B1FFBF"/>
<path d="M31.6667 92C31.6667 91.6318 31.3682 91.3333 31 91.3333C30.6318 91.3333 30.3333 91.6318 30.3333 92C30.3333 92.3682 30.6318 92.6667 31 92.6667C31.3682 92.6667 31.6667 92.3682 31.6667 92ZM37.9441 95.6118C38.0058 95.6427 38.0809 95.6176 38.1118 95.5559C38.1427 95.4942 38.1176 95.4191 38.0559 95.3882L38 95.5L37.9441 95.6118ZM31 92L30.9441 92.1118L37.9441 95.6118L38 95.5L38.0559 95.3882L31.0559 91.8882L31 92Z" fill="#B1FFBF"/>
<path d="M27.5 91.5H27.375V91.5773L27.4441 91.6118L27.5 91.5ZM33.1667 94C33.1667 93.6318 32.8682 93.3333 32.5 93.3333C32.1318 93.3333 31.8333 93.6318 31.8333 94C31.8333 94.3682 32.1318 94.6667 32.5 94.6667C32.8682 94.6667 33.1667 94.3682 33.1667 94ZM27.5 90.5H27.625V90.4236L27.557 90.3888L27.5 90.5ZM8 80.5L8.05704 80.3888L8.03018 80.375H8V80.5ZM5 80.5L4.93066 80.604L4.96215 80.625H5V80.5ZM3.56934 79.396C3.5119 79.3577 3.43429 79.3732 3.39599 79.4307C3.3577 79.4881 3.37322 79.5657 3.43066 79.604L3.5 79.5L3.56934 79.396ZM27.5 91.5L27.4441 91.6118L32.4441 94.1118L32.5 94L32.5559 93.8882L27.5559 91.3882L27.5 91.5ZM27.5 91.5H27.625V90.5H27.5H27.375V91.5H27.5ZM27.5 90.5L27.557 90.3888L8.05704 80.3888L8 80.5L7.94296 80.6112L27.443 90.6112L27.5 90.5ZM8 80.5V80.375H5V80.5V80.625H8V80.5ZM5 80.5L5.06934 80.396L3.56934 79.396L3.5 79.5L3.43066 79.604L4.93066 80.604L5 80.5Z" fill="#B1FFBF"/>
<path d="M2.5 71L2.39599 70.9307L2.375 70.9622V71H2.5ZM3.5 69.5L3.60401 69.5693L3.625 69.5378V69.5H3.5ZM4.16667 56C4.16667 55.6318 3.86819 55.3333 3.5 55.3333C3.13181 55.3333 2.83333 55.6318 2.83333 56C2.83333 56.3682 3.13181 56.6667 3.5 56.6667C3.86819 56.6667 4.16667 56.3682 4.16667 56ZM2.5 71H2.375V78H2.5H2.625V71H2.5ZM2.5 71L2.60401 71.0693L3.60401 69.5693L3.5 69.5L3.39599 69.4307L2.39599 70.9307L2.5 71ZM3.5 69.5H3.625V56H3.5H3.375V69.5H3.5Z" fill="#B1FFBF"/>
<path d="M1.5 55.5L1.39599 55.4307L1.375 55.4622V55.5H1.5ZM2.16667 64C2.16667 63.6318 1.86819 63.3333 1.5 63.3333C1.13181 63.3333 0.833333 63.6318 0.833333 64C0.833333 64.3682 1.13181 64.6667 1.5 64.6667C1.86819 64.6667 2.16667 64.3682 2.16667 64ZM2.5 54L2.60401 54.0693L2.625 54.0378V54H2.5ZM1.5 55.5H1.375V64H1.5H1.625V55.5H1.5ZM1.5 55.5L1.60401 55.5693L2.60401 54.0693L2.5 54L2.39599 53.9307L1.39599 55.4307L1.5 55.5ZM2.5 54H2.625V22H2.5H2.375V54H2.5Z" fill="#B1FFBF"/>
<path d="M38 3L3.5 20.5" stroke="#B1FFBF" stroke-width="0.25"/>
<rect x="6.5" y="35" width="66" height="30" fill="#B1FFBF" fill-opacity="0.3"/>
<defs>
<pattern id="pattern0_238_18" patternUnits="userSpaceOnUse" patternTransform="matrix(6 0 0 6 36.5 47)" preserveAspectRatio="none" viewBox="0 0 8 8" width="1" height="1">
<g id="pattern0_238_18_inner">
<rect x="0.05" y="0.05" width="7.9" height="7.9" stroke="#B1FFBF" stroke-width="0.1"/>
</g>
</pattern></defs>
</svg>
